<svg width="100" height="100" viewBox="0 0 100 100" fill="none" xmlns="http://www.w3.org/2000/svg">
<path d="M14.3355 67.5774L23.7887 14.0227C23.8547 13.6185 24.0006 13.2315 24.2178 12.8843C24.4349 12.537 24.719 12.2365 25.0535 12.0002C25.388 11.7638 25.7662 11.5964 26.166 11.5078C26.5659 11.4191 26.9794 11.4109 27.3824 11.4837L48.9449 15.2727C49.7596 15.425 50.482 15.891 50.9568 16.5703C51.4316 17.2496 51.6209 18.0881 51.484 18.9055L41.9918 72.7727C41.3417 76.3999 39.2977 79.6285 36.2972 81.7676C33.2966 83.9066 29.578 84.7862 25.9371 84.218C18.1637 82.968 12.9684 75.3508 14.3355 67.5774Z" stroke="white" stroke-width="3" stroke-linecap="round" stroke-linejoin="round"/>
<path d="M46.21 48.7501L74.6865 38.3985C75.0737 38.2556 75.4853 38.1907 75.8977 38.2077C76.31 38.2247 76.7149 38.3232 77.089 38.4976C77.4631 38.6719 77.7989 38.9186 78.0771 39.2234C78.3553 39.5282 78.5704 39.8851 78.71 40.2735L86.21 60.8204C86.4866 61.5976 86.4447 62.4526 86.0935 63.199C85.7422 63.9454 85.1101 64.5226 84.335 64.8048L32.9287 83.5157" stroke="white" stroke-width="3" stroke-linecap="round" stroke-linejoin="round"/>
<path d="M85.9375 63.4766V81.25C85.9375 82.0788 85.6083 82.8737 85.0222 83.4597C84.4362 84.0458 83.6413 84.375 82.8125 84.375H28.125" stroke="white" stroke-width="3" stroke-linecap="round" stroke-linejoin="round"/>
<path d="M28.125 75C30.7138 75 32.8125 72.9013 32.8125 70.3125C32.8125 67.7237 30.7138 65.625 28.125 65.625C25.5362 65.625 23.4375 67.7237 23.4375 70.3125C23.4375 72.9013 25.5362 75 28.125 75Z" fill="white"/>
</svg>
