<?xml version="1.0" standalone="no"?>
<!DOCTYPE svg PUBLIC "-//W3C//DTD SVG 20010904//EN"
 "http://www.w3.org/TR/2001/REC-SVG-20010904/DTD/svg10.dtd">
<svg version="1.0" xmlns="http://www.w3.org/2000/svg"
 width="700.000000pt" height="700.000000pt" viewBox="0 0 700.000000 700.000000"
 preserveAspectRatio="xMidYMid meet">
<metadata>
Created by potrace 1.14, written by Peter Selinger 2001-2017
</metadata>
<g transform="translate(0.000000,700.000000) scale(0.100000,-0.100000)"
fill="#000000" stroke="none">
<path d="M827 6119 c-20 -3 -52 -17 -72 -30 -108 -74 -130 -225 -45 -322 77
-88 -213 -79 2791 -79 2644 -1 2666 0 2711 19 55 25 84 55 110 112 49 108 -2
240 -112 289 -31 14 -312 16 -2691 16 -1461 1 -2672 -2 -2692 -5z"/>
<path d="M807 5457 c-55 -18 -107 -64 -130 -116 -19 -42 -20 -66 -20 -321 0
-151 3 -302 7 -335 34 -267 163 -515 364 -693 l67 -60 -1 -1328 c0 -731 3
-1349 8 -1374 31 -165 173 -310 339 -344 44 -9 557 -11 2076 -11 2197 1 2051
-2 2163 55 58 30 142 115 173 176 53 105 51 42 52 1480 l1 1342 100 98 c176
174 274 357 320 596 18 93 27 600 11 673 -11 56 -50 110 -100 142 -84 54 -220
30 -281 -49 -46 -61 -48 -78 -50 -378 -3 -314 -10 -366 -65 -480 -137 -283
-450 -428 -754 -351 -238 61 -413 241 -478 491 -7 29 -12 152 -13 340 -2 280
-3 297 -23 336 -86 164 -310 164 -395 1 -21 -40 -22 -56 -24 -332 -2 -320 -9
-377 -64 -487 -86 -173 -228 -291 -413 -345 -79 -23 -208 -32 -272 -19 -16 3
-41 8 -54 11 -92 18 -213 82 -291 153 -94 84 -166 208 -201 342 -7 28 -12 157
-13 340 -2 280 -3 297 -24 337 -85 163 -309 162 -395 -2 -19 -37 -21 -58 -22
-325 -3 -305 -9 -364 -53 -465 -103 -240 -338 -396 -598 -397 -309 -1 -574
211 -645 517 -7 30 -13 163 -14 335 -3 300 -5 317 -51 378 -49 63 -157 95
-237 69z m2018 -1503 c152 -118 310 -188 500 -222 67 -12 326 -7 385 7 249 59
406 145 574 315 89 90 99 98 109 80 18 -34 160 -168 227 -214 142 -99 301
-163 470 -188 62 -10 286 -8 338 2 l42 8 0 -1215 0 -1215 -1970 0 -1970 1 0
1214 0 1213 28 -6 c62 -14 308 -12 385 2 229 44 422 147 587 315 l95 97 75
-78 c41 -43 98 -95 125 -116z"/>
</g>
</svg>
