<svg xmlns="http://www.w3.org/2000/svg" fill="none">
  <symbol id="close" viewBox="0 0 20 20">
    <path d="M11.6471 9.99952L19.8966 1.75001L18.2467 0.100098L9.99722 8.34961L1.74821 0.100599L0.0982933 1.75052L8.3473 9.99952L0.0976562 18.2492L1.74757 19.8991L9.99722 11.6494L18.2474 19.8996L19.8973 18.2497L11.6471 9.99952Z" />
  </symbol>

  <symbol id="logo" viewBox="0 0 32 32">
    <path d="M6 12.4502C6.55228 12.4502 7 12.8979 7 13.4502V26.0002H25V13.4502C25 12.8979 25.4477 12.4502 26 12.4502C26.5523 12.4502 27 12.8979 27 13.4502V26.0002C27 26.5306 26.7893 27.0393 26.4142 27.4144C26.0391 27.7895 25.5304 28.0002 25 28.0002H7C6.46957 28.0002 5.96086 27.7895 5.58579 27.4144C5.21071 27.0393 5 26.5306 5 26.0002V13.4502C5 12.8979 5.44772 12.4502 6 12.4502Z" />
    <path d="M3 5C3 4.44772 3.44772 4 4 4H28C28.5523 4 29 4.44772 29 5C29 5.55228 28.5523 6 28 6H4C3.44772 6 3 5.55228 3 5Z" />
    <path d="M4 7C4.55228 7 5 7.44772 5 8V10C5 10.7956 5.31607 11.5587 5.87868 12.1213C6.44129 12.6839 7.20435 13 8 13C8.79565 13 9.55871 12.6839 10.1213 12.1213C10.6839 11.5587 11 10.7956 11 10V8C11 7.44772 11.4477 7 12 7C12.5523 7 13 7.44772 13 8V10C13 11.3261 12.4732 12.5979 11.5355 13.5355C10.5979 14.4732 9.32608 15 8 15C6.67392 15 5.40215 14.4732 4.46447 13.5355C3.52678 12.5979 3 11.3261 3 10V8C3 7.44772 3.44772 7 4 7Z" />
    <path d="M12 7C12.5523 7 13 7.44772 13 8V10C13 10.7956 13.3161 11.5587 13.8787 12.1213C14.4413 12.6839 15.2044 13 16 13C16.7956 13 17.5587 12.6839 18.1213 12.1213C18.6839 11.5587 19 10.7956 19 10V8C19 7.44772 19.4477 7 20 7C20.5523 7 21 7.44772 21 8V10C21 11.3261 20.4732 12.5979 19.5355 13.5355C18.5979 14.4732 17.3261 15 16 15C14.6739 15 13.4021 14.4732 12.4645 13.5355C11.5268 12.5979 11 11.3261 11 10V8C11 7.44772 11.4477 7 12 7Z" />
    <path d="M20 7C20.5523 7 21 7.44772 21 8V10C21 10.7956 21.3161 11.5587 21.8787 12.1213C22.4413 12.6839 23.2044 13 24 13C24.7956 13 25.5587 12.6839 26.1213 12.1213C26.6839 11.5587 27 10.7956 27 10V8C27 7.44772 27.4477 7 28 7C28.5523 7 29 7.44772 29 8V10C29 11.3261 28.4732 12.5979 27.5355 13.5355C26.5979 14.4732 25.3261 15 24 15C22.6739 15 21.4021 14.4732 20.4645 13.5355C19.5268 12.5979 19 11.3261 19 10V8C19 7.44772 19.4477 7 20 7Z" />
  </symbol>

  <symbol id="user" viewBox="0 0 20 20">
    <path d="M10 3.125C7.58375 3.125 5.625 5.08375 5.625 7.5C5.625 9.91625 7.58375 11.875 10 11.875C12.4162 11.875 14.375 9.91625 14.375 7.5C14.375 5.08375 12.4162 3.125 10 3.125ZM4.375 7.5C4.375 4.3934 6.8934 1.875 10 1.875C13.1066 1.875 15.625 4.3934 15.625 7.5C15.625 10.6066 13.1066 13.125 10 13.125C6.8934 13.125 4.375 10.6066 4.375 7.5Z" />
    <path d="M10.0001 13.124C8.57374 13.124 7.17251 13.4995 5.93728 14.2128C4.70205 14.926 3.67634 15.9518 2.96327 17.1872C2.79071 17.4861 2.40848 17.5886 2.10953 17.416C1.81058 17.2435 1.70812 16.8612 1.88068 16.5623C2.70345 15.1369 3.88696 13.9532 5.31223 13.1303C6.7375 12.3073 8.3543 11.874 10.0001 11.874C11.6459 11.874 13.2627 12.3073 14.688 13.1303C16.1132 13.9532 17.2968 15.1369 18.1195 16.5623C18.2921 16.8612 18.1896 17.2435 17.8907 17.416C17.5917 17.5886 17.2095 17.4861 17.0369 17.1872C16.3239 15.9518 15.2982 14.926 14.0629 14.2128C12.8277 13.4995 11.4265 13.124 10.0001 13.124Z" />
  </symbol>
</svg>
