<svg xmlns="http://www.w3.org/2000/svg" fill="none">
  <symbol id="close" viewBox="0 0 20 20">
    <path d="M11.6471 9.99952L19.8966 1.75001L18.2467 0.100098L9.99722 8.34961L1.74821 0.100599L0.0982933 1.75052L8.3473 9.99952L0.0976562 18.2492L1.74757 19.8991L9.99722 11.6494L18.2474 19.8996L19.8973 18.2497L11.6471 9.99952Z" />
  </symbol>

  <symbol id="discord" viewBox="0 0 32 32">
    <path d="M12 19.5C12.8284 19.5 13.5 18.8284 13.5 18C13.5 17.1716 12.8284 16.5 12 16.5C11.1716 16.5 10.5 17.1716 10.5 18C10.5 18.8284 11.1716 19.5 12 19.5Z"/>
    <path d="M20 19.5C20.8284 19.5 21.5 18.8284 21.5 18C21.5 17.1716 20.8284 16.5 20 16.5C19.1716 16.5 18.5 17.1716 18.5 18C18.5 18.8284 19.1716 19.5 20 19.5Z"/>
    <path d="M15.9927 9.99959C13.8249 9.98356 11.6678 10.3055 9.59914 10.9539C9.07213 11.119 8.51101 10.8257 8.34584 10.2987C8.18067 9.77168 8.474 9.21056 9.00101 9.04539C11.2656 8.33563 13.6269 7.98281 16.0001 7.99959C18.3732 7.98281 20.7345 8.33563 22.9991 9.04539C23.5261 9.21056 23.8195 9.77168 23.6543 10.2987C23.4891 10.8257 22.928 11.119 22.401 10.9539C20.3323 10.3055 18.1753 9.98356 16.0075 9.99959H15.9927Z"/>
    <path d="M8.34584 21.7012C8.51101 21.1742 9.07213 20.8809 9.59914 21.046C11.6678 21.6944 13.8249 22.0163 15.9927 22.0003H16.0075C18.1753 22.0163 20.3323 21.6944 22.401 21.046C22.928 20.8809 23.4891 21.1742 23.6543 21.7012C23.8195 22.2282 23.5261 22.7893 22.9991 22.9545C20.7345 23.6643 18.3732 24.0171 16.0001 24.0003C13.6269 24.0171 11.2656 23.6643 9.00101 22.9545C8.474 22.7893 8.18067 22.2282 8.34584 21.7012Z"/>
    <path d="M20.2199 4.81121C20.6504 4.56852 21.1551 4.49267 21.6378 4.59812C22.9554 4.88366 24.2453 5.28424 25.4928 5.79524C25.7736 5.90352 26.0259 6.07496 26.2299 6.29638C26.4362 6.52018 26.5875 6.78885 26.672 7.08115L30.9079 21.2255C31.0183 21.594 31.0209 21.9865 30.9152 22.3563C30.8095 22.7262 30.6 23.0581 30.3116 23.3126L30.3064 23.3171C28.2389 25.1161 25.4376 26.4777 22.2556 27.2577C21.8136 27.3703 21.3462 27.3265 20.9327 27.1336C20.521 26.9414 20.1882 26.6132 19.9903 26.2044L18.482 23.2129C18.2334 22.7197 18.4316 22.1184 18.9248 21.8698C19.4179 21.6211 20.0193 21.8194 20.2679 22.3125L21.7804 25.3125L21.7815 25.3147C24.7194 24.5943 27.2136 23.3571 28.9936 21.8083L29.65 22.5627L28.9884 21.8128C28.9902 21.8113 28.9915 21.8092 28.9921 21.8069C28.9928 21.8046 28.9928 21.8022 28.9921 21.7999L24.756 7.65465C24.7525 7.65325 24.7489 7.65182 24.7454 7.65037C23.6025 7.18149 22.4206 6.81412 21.2132 6.55253L21.211 6.55205C21.208 6.55139 21.2049 6.55186 21.2022 6.55337C21.1998 6.55473 21.1979 6.55684 21.1969 6.55937L20.212 9.53905C20.0386 10.0634 19.473 10.348 18.9486 10.1747C18.4243 10.0013 18.1397 9.43574 18.313 8.91136L19.3034 5.91516C19.4629 5.44707 19.7892 5.0541 20.2199 4.81121Z"/>
    <path d="M10.7977 6.55337C10.795 6.55186 10.7919 6.55139 10.7889 6.55205L10.7867 6.55252C9.57939 6.81412 8.39743 7.18148 7.25453 7.65037C7.251 7.65182 7.24746 7.65324 7.24392 7.65465L3.00794 21.7996C3.00725 21.8019 3.00715 21.8046 3.00781 21.8069C3.0084 21.809 3.00951 21.8108 3.01103 21.8123C4.79072 23.3593 7.28311 24.5949 10.2185 25.3147L10.2195 25.3125L11.732 22.3125C11.9807 21.8194 12.582 21.6211 13.0752 21.8698C13.5683 22.1184 13.7665 22.7197 13.5179 23.2129L12.0097 26.2045C11.8118 26.6132 11.479 26.9414 11.0672 27.1336C10.6537 27.3265 10.1863 27.3703 9.74432 27.2577C6.56239 26.4777 3.76102 25.1161 1.69355 23.3171L1.68837 23.3126C1.3999 23.0581 1.19044 22.7262 1.08476 22.3563C0.979102 21.9865 0.981619 21.5942 1.092 21.2258C1.09198 21.2259 1.09203 21.2257 1.092 21.2258L5.3279 7.08117C5.41243 6.78887 5.56377 6.52019 5.77003 6.29638C5.97408 6.07496 6.2263 5.90352 6.50711 5.79524C7.75497 5.28409 9.04529 4.88344 10.3632 4.59788C10.8456 4.49279 11.3499 4.5687 11.78 4.81121C12.2108 5.05409 12.537 5.44708 12.6965 5.91518L12.6995 5.92385L13.6869 8.91136C13.8603 9.43574 13.5757 10.0013 13.0513 10.1747C12.5269 10.348 11.9613 10.0634 11.788 9.53905L10.8031 6.55937C10.802 6.55684 10.8001 6.55473 10.7977 6.55337Z"/>
    <path d="M12 19.5C12.8284 19.5 13.5 18.8284 13.5 18C13.5 17.1716 12.8284 16.5 12 16.5C11.1716 16.5 10.5 17.1716 10.5 18C10.5 18.8284 11.1716 19.5 12 19.5Z"/>
    <path d="M20 19.5C20.8284 19.5 21.5 18.8284 21.5 18C21.5 17.1716 20.8284 16.5 20 16.5C19.1716 16.5 18.5 17.1716 18.5 18C18.5 18.8284 19.1716 19.5 20 19.5Z"/>
    <path d="M15.9927 9.99959C13.8249 9.98356 11.6678 10.3055 9.59914 10.9539C9.07213 11.119 8.51101 10.8257 8.34584 10.2987C8.18067 9.77168 8.474 9.21056 9.00101 9.04539C11.2656 8.33563 13.6269 7.98281 16.0001 7.99959C18.3732 7.98281 20.7345 8.33563 22.9991 9.04539C23.5261 9.21056 23.8195 9.77168 23.6543 10.2987C23.4891 10.8257 22.928 11.119 22.401 10.9539C20.3323 10.3055 18.1753 9.98356 16.0075 9.99959H15.9927Z"/>
    <path d="M8.34584 21.7012C8.51101 21.1742 9.07213 20.8809 9.59914 21.046C11.6678 21.6944 13.8249 22.0163 15.9927 22.0003H16.0075C18.1753 22.0163 20.3323 21.6944 22.401 21.046C22.928 20.8809 23.4891 21.1742 23.6543 21.7012C23.8195 22.2282 23.5261 22.7893 22.9991 22.9545C20.7345 23.6643 18.3732 24.0171 16.0001 24.0003C13.6269 24.0171 11.2656 23.6643 9.00101 22.9545C8.474 22.7893 8.18067 22.2282 8.34584 21.7012Z"/>
    <path d="M20.2199 4.81121C20.6504 4.56852 21.1551 4.49267 21.6378 4.59812C22.9554 4.88366 24.2453 5.28424 25.4928 5.79524C25.7736 5.90352 26.0259 6.07496 26.2299 6.29638C26.4362 6.52018 26.5875 6.78885 26.672 7.08115L30.9079 21.2255C31.0183 21.594 31.0209 21.9865 30.9152 22.3563C30.8095 22.7262 30.6 23.0581 30.3116 23.3126L30.3064 23.3171C28.2389 25.1161 25.4376 26.4777 22.2556 27.2577C21.8136 27.3703 21.3462 27.3265 20.9327 27.1336C20.521 26.9414 20.1882 26.6132 19.9903 26.2044L18.482 23.2129C18.2334 22.7197 18.4316 22.1184 18.9248 21.8698C19.4179 21.6211 20.0193 21.8194 20.2679 22.3125L21.7804 25.3125L21.7815 25.3147C24.7194 24.5943 27.2136 23.3571 28.9936 21.8083L29.65 22.5627L28.9884 21.8128C28.9902 21.8113 28.9915 21.8092 28.9921 21.8069C28.9928 21.8046 28.9928 21.8022 28.9921 21.7999L24.756 7.65465C24.7525 7.65325 24.7489 7.65182 24.7454 7.65037C23.6025 7.18149 22.4206 6.81412 21.2132 6.55253L21.211 6.55205C21.208 6.55139 21.2049 6.55186 21.2022 6.55337C21.1998 6.55473 21.1979 6.55684 21.1969 6.55937L20.212 9.53905C20.0386 10.0634 19.473 10.348 18.9486 10.1747C18.4243 10.0013 18.1397 9.43574 18.313 8.91136L19.3034 5.91516C19.4629 5.44707 19.7892 5.0541 20.2199 4.81121Z"/>
    <path d="M10.7977 6.55337C10.795 6.55186 10.7919 6.55139 10.7889 6.55205L10.7867 6.55252C9.57939 6.81412 8.39743 7.18148 7.25453 7.65037C7.251 7.65182 7.24746 7.65324 7.24392 7.65465L3.00794 21.7996C3.00725 21.8019 3.00715 21.8046 3.00781 21.8069C3.0084 21.809 3.00951 21.8108 3.01103 21.8123C4.79072 23.3593 7.28311 24.5949 10.2185 25.3147L10.2195 25.3125L11.732 22.3125C11.9807 21.8194 12.582 21.6211 13.0752 21.8698C13.5683 22.1184 13.7665 22.7197 13.5179 23.2129L12.0097 26.2045C11.8118 26.6132 11.479 26.9414 11.0672 27.1336C10.6537 27.3265 10.1863 27.3703 9.74432 27.2577C6.56239 26.4777 3.76102 25.1161 1.69355 23.3171L1.68837 23.3126C1.3999 23.0581 1.19044 22.7262 1.08476 22.3563C0.979102 21.9865 0.981619 21.5942 1.092 21.2258C1.09198 21.2259 1.09203 21.2257 1.092 21.2258L5.3279 7.08117C5.41243 6.78887 5.56377 6.52019 5.77003 6.29638C5.97408 6.07496 6.2263 5.90352 6.50711 5.79524C7.75497 5.28409 9.04529 4.88344 10.3632 4.59788C10.8456 4.49279 11.3499 4.5687 11.78 4.81121C12.2108 5.05409 12.537 5.44708 12.6965 5.91518L12.6995 5.92385L13.6869 8.91136C13.8603 9.43574 13.5757 10.0013 13.0513 10.1747C12.5269 10.348 11.9613 10.0634 11.788 9.53905L10.8031 6.55937C10.802 6.55684 10.8001 6.55473 10.7977 6.55337Z"/>
  </symbol>

  <symbol id="instagram" viewBox="0 0 32 32">
    <path d="M16 12C13.7909 12 12 13.7909 12 16C12 18.2091 13.7909 20 16 20C18.2091 20 20 18.2091 20 16C20 13.7909 18.2091 12 16 12ZM10 16C10 12.6863 12.6863 10 16 10C19.3137 10 22 12.6863 22 16C22 19.3137 19.3137 22 16 22C12.6863 22 10 19.3137 10 16Z"/>
    <path d="M10.5 5.5C7.73858 5.5 5.5 7.73858 5.5 10.5V21.5C5.5 24.2614 7.73858 26.5 10.5 26.5H21.5C24.2614 26.5 26.5 24.2614 26.5 21.5V10.5C26.5 7.73858 24.2614 5.5 21.5 5.5H10.5ZM3.5 10.5C3.5 6.63401 6.63401 3.5 10.5 3.5H21.5C25.366 3.5 28.5 6.63401 28.5 10.5V21.5C28.5 25.366 25.366 28.5 21.5 28.5H10.5C6.63401 28.5 3.5 25.366 3.5 21.5V10.5Z"/>
    <path d="M22.5 11C23.3284 11 24 10.3284 24 9.5C24 8.67157 23.3284 8 22.5 8C21.6716 8 21 8.67157 21 9.5C21 10.3284 21.6716 11 22.5 11Z"/>
  </symbol>

  <symbol id="logo" viewBox="0 0 32 32">
    <path d="M6 12.4502C6.55228 12.4502 7 12.8979 7 13.4502V26.0002H25V13.4502C25 12.8979 25.4477 12.4502 26 12.4502C26.5523 12.4502 27 12.8979 27 13.4502V26.0002C27 26.5306 26.7893 27.0393 26.4142 27.4144C26.0391 27.7895 25.5304 28.0002 25 28.0002H7C6.46957 28.0002 5.96086 27.7895 5.58579 27.4144C5.21071 27.0393 5 26.5306 5 26.0002V13.4502C5 12.8979 5.44772 12.4502 6 12.4502Z" />
    <path d="M3 5C3 4.44772 3.44772 4 4 4H28C28.5523 4 29 4.44772 29 5C29 5.55228 28.5523 6 28 6H4C3.44772 6 3 5.55228 3 5Z" />
    <path d="M4 7C4.55228 7 5 7.44772 5 8V10C5 10.7956 5.31607 11.5587 5.87868 12.1213C6.44129 12.6839 7.20435 13 8 13C8.79565 13 9.55871 12.6839 10.1213 12.1213C10.6839 11.5587 11 10.7956 11 10V8C11 7.44772 11.4477 7 12 7C12.5523 7 13 7.44772 13 8V10C13 11.3261 12.4732 12.5979 11.5355 13.5355C10.5979 14.4732 9.32608 15 8 15C6.67392 15 5.40215 14.4732 4.46447 13.5355C3.52678 12.5979 3 11.3261 3 10V8C3 7.44772 3.44772 7 4 7Z" />
    <path d="M12 7C12.5523 7 13 7.44772 13 8V10C13 10.7956 13.3161 11.5587 13.8787 12.1213C14.4413 12.6839 15.2044 13 16 13C16.7956 13 17.5587 12.6839 18.1213 12.1213C18.6839 11.5587 19 10.7956 19 10V8C19 7.44772 19.4477 7 20 7C20.5523 7 21 7.44772 21 8V10C21 11.3261 20.4732 12.5979 19.5355 13.5355C18.5979 14.4732 17.3261 15 16 15C14.6739 15 13.4021 14.4732 12.4645 13.5355C11.5268 12.5979 11 11.3261 11 10V8C11 7.44772 11.4477 7 12 7Z" />
    <path d="M20 7C20.5523 7 21 7.44772 21 8V10C21 10.7956 21.3161 11.5587 21.8787 12.1213C22.4413 12.6839 23.2044 13 24 13C24.7956 13 25.5587 12.6839 26.1213 12.1213C26.6839 11.5587 27 10.7956 27 10V8C27 7.44772 27.4477 7 28 7C28.5523 7 29 7.44772 29 8V10C29 11.3261 28.4732 12.5979 27.5355 13.5355C26.5979 14.4732 25.3261 15 24 15C22.6739 15 21.4021 14.4732 20.4645 13.5355C19.5268 12.5979 19 11.3261 19 10V8C19 7.44772 19.4477 7 20 7Z" />
  </symbol>

  <symbol id="eye" viewBox="0 0 25 20">
    <path d="M2.83931 6.74556C4.3292 5.25567 6.66714 3.75 10 3.75C13.3329 3.75 15.6708 5.25567 17.1607 6.74556C17.9038 7.4887 18.4397 8.23076 18.7906 8.78809C18.9664 9.06724 19.0966 9.30146 19.184 9.4683C19.2277 9.55176 19.2608 9.61849 19.2835 9.66569C19.2949 9.6893 19.3037 9.70804 19.3099 9.72157L19.3174 9.7379L19.3197 9.74306L19.3206 9.74487L19.3209 9.74558C19.321 9.74588 19.3211 9.74616 18.75 10C19.3211 10.2538 19.321 10.2541 19.3209 10.2544L19.3206 10.2551L19.3197 10.2569L19.3174 10.2621L19.3099 10.2784C19.3037 10.292 19.2949 10.3107 19.2835 10.3343C19.2608 10.3815 19.2277 10.4482 19.184 10.5317C19.0966 10.6985 18.9664 10.9328 18.7906 11.2119C18.4397 11.7692 17.9038 12.5113 17.1607 13.2544C15.6708 14.7443 13.3329 16.25 10 16.25C6.66714 16.25 4.3292 14.7443 2.83931 13.2544C2.09617 12.5113 1.5603 11.7692 1.20939 11.2119C1.03362 10.9328 0.903373 10.6985 0.815984 10.5317C0.772267 10.4482 0.739205 10.3815 0.716476 10.3343C0.705109 10.3107 0.696319 10.292 0.690066 10.2784L0.682582 10.2621L0.680256 10.2569L0.679445 10.2551L0.679127 10.2544C0.678993 10.2541 0.678868 10.2538 1.25 10C0.678868 9.74616 0.678993 9.74588 0.679127 9.74558L0.679445 9.74487L0.680256 9.74306L0.682582 9.7379L0.690066 9.72157C0.696319 9.70804 0.705109 9.6893 0.716476 9.66569C0.739205 9.61849 0.772267 9.55176 0.815984 9.4683C0.903373 9.30146 1.03362 9.06724 1.20939 8.78809C1.5603 8.23076 2.09617 7.4887 2.83931 6.74556ZM1.25 10L0.678868 9.74616C0.607044 9.90777 0.607044 10.0922 0.678868 10.2538L1.25 10ZM1.94882 10C2.02235 10.1377 2.12794 10.3248 2.26718 10.5459C2.58033 11.0433 3.06008 11.7074 3.72319 12.3706C5.0458 13.6932 7.08286 15 10 15C12.9171 15 14.9542 13.6932 16.2768 12.3706C16.9399 11.7074 17.4197 11.0433 17.7328 10.5459C17.8721 10.3248 17.9777 10.1377 18.0512 10C17.9777 9.86227 17.8721 9.67524 17.7328 9.4541C17.4197 8.95674 16.9399 8.29255 16.2768 7.62944C14.9542 6.30683 12.9171 5 10 5C7.08286 5 5.0458 6.30683 3.72319 7.62944C3.06008 8.29255 2.58033 8.95674 2.26718 9.4541C2.12794 9.67524 2.02235 9.86227 1.94882 10ZM18.75 10L19.3211 10.2538C19.393 10.0922 19.393 9.90777 19.3211 9.74616L18.75 10Z" />
    <path d="M10 7.5C8.61929 7.5 7.5 8.61929 7.5 10C7.5 11.3807 8.61929 12.5 10 12.5C11.3807 12.5 12.5 11.3807 12.5 10C12.5 8.61929 11.3807 7.5 10 7.5ZM6.25 10C6.25 7.92893 7.92893 6.25 10 6.25C12.0711 6.25 13.75 7.92893 13.75 10C13.75 12.0711 12.0711 13.75 10 13.75C7.92893 13.75 6.25 12.0711 6.25 10Z" />
  </symbol>

  <symbol id="rocket" viewBox="0 0 32 32">
    <path d="M9.87284 19.9188C10.0489 20.4423 9.76722 21.0094 9.24374 21.1854C7.54867 21.7554 6.64783 23.1784 6.16596 24.6254C5.97462 25.2 5.85902 25.7531 5.78956 26.2105C6.24694 26.1411 6.80009 26.0255 7.37468 25.8341C8.82168 25.3523 10.2446 24.4514 10.8147 22.7563C10.9907 22.2329 11.5578 21.9512 12.0812 22.1272C12.6047 22.3033 12.8864 22.8703 12.7103 23.3938C11.8554 25.9362 9.74082 27.1542 8.00657 27.7317C7.13049 28.0234 6.31032 28.1674 5.71168 28.2392C5.41091 28.2753 5.16226 28.2936 4.98561 28.3029C4.89719 28.3076 4.82652 28.31 4.77608 28.3112C4.75085 28.3119 4.73066 28.3122 4.7158 28.3124L4.69754 28.3125L4.69148 28.3126L4.68923 28.3126L4.6883 28.3126C4.68789 28.3126 4.6875 28.3126 4.6875 27.3126C3.6875 27.3126 3.6875 27.3122 3.6875 27.3118L3.6875 27.3108L3.68751 27.3086L3.68753 27.3025L3.6877 27.2843C3.68788 27.2694 3.68822 27.2492 3.68884 27.224C3.69009 27.1736 3.69251 27.1029 3.69716 27.0145C3.70645 26.8378 3.72475 26.5892 3.76083 26.2884C3.83264 25.6898 3.97667 24.8696 4.26841 23.9935C4.84592 22.2593 6.06383 20.1447 8.60626 19.2897C9.12974 19.1137 9.6968 19.3954 9.87284 19.9188ZM4.6875 27.3126H3.6875C3.6875 27.8649 4.13522 28.3126 4.6875 28.3126V27.3126Z"/>
    <path fill-rule="evenodd" d="M26.4738 5.52591C25.3131 5.35851 22.456 5.29544 19.532 8.21946L11.7516 15.9999L15.9999 20.2481L23.7803 12.4678C26.7043 9.54373 26.6412 6.68663 26.4738 5.52591ZM26.7638 3.54704C25.1675 3.31593 21.6091 3.31392 18.1178 6.80525L9.6303 15.2928C9.44276 15.4803 9.3374 15.7346 9.3374 15.9999C9.3374 16.2651 9.44276 16.5194 9.6303 16.707L15.2928 22.3695C15.6833 22.76 16.3165 22.76 16.707 22.3695L25.1945 13.882C28.6858 10.3906 28.6838 6.83225 28.4527 5.23593C28.3942 4.80869 28.1975 4.41226 27.8925 4.10726C27.5875 3.80225 27.1911 3.60553 26.7638 3.54704Z" />
    <path d="M23.075 13.5879C23.6272 13.5879 24.075 14.0356 24.075 14.5879V22.6629L24.0748 22.6771C24.0674 23.2024 23.8535 23.7035 23.4797 24.0723L19.4441 28.1204C19.188 28.3763 18.8671 28.5578 18.5158 28.6457C18.1646 28.7335 17.796 28.7243 17.4496 28.6191C17.1031 28.5138 16.7917 28.3165 16.5486 28.0482C16.3057 27.7801 16.14 27.4511 16.0693 27.0962C16.0693 27.0959 16.0694 27.0965 16.0693 27.0962L15.0195 21.8595C14.9109 21.3179 15.2619 20.791 15.8034 20.6824C16.3449 20.5738 16.8719 20.9248 16.9804 21.4663L18.0307 26.7054L22.0749 22.6487V14.5879C22.0749 14.0356 22.5227 13.5879 23.075 13.5879Z" />
    <path d="M9.32317 7.92491L9.33741 7.9248H17.4124C17.9647 7.9248 18.4124 8.37252 18.4124 8.9248C18.4124 9.47709 17.9647 9.9248 17.4124 9.9248H9.35155L9.34347 9.93305L9.34342 9.933L5.29492 13.969L5.29647 13.9693L10.534 15.0193C11.0755 15.1279 11.4265 15.6549 11.3179 16.1964C11.2093 16.7379 10.6824 17.0889 10.1408 16.9803L4.90489 15.9306C4.90459 15.9305 4.90429 15.9305 4.90399 15.9304C4.5492 15.8597 4.22022 15.6941 3.9521 15.4512C3.68376 15.2081 3.48645 14.8967 3.38123 14.5502C3.27601 14.2037 3.26682 13.8352 3.35464 13.4839C3.44246 13.1326 3.624 12.8118 3.87989 12.5556L3.88139 12.5541L3.8814 12.5541L7.92796 8.52003C8.29678 8.14622 8.79791 7.93239 9.32317 7.92491Z"/>
  </symbol>

  <symbol id="user" viewBox="0 0 20 20">
    <path d="M10 3.125C7.58375 3.125 5.625 5.08375 5.625 7.5C5.625 9.91625 7.58375 11.875 10 11.875C12.4162 11.875 14.375 9.91625 14.375 7.5C14.375 5.08375 12.4162 3.125 10 3.125ZM4.375 7.5C4.375 4.3934 6.8934 1.875 10 1.875C13.1066 1.875 15.625 4.3934 15.625 7.5C15.625 10.6066 13.1066 13.125 10 13.125C6.8934 13.125 4.375 10.6066 4.375 7.5Z" />
    <path d="M10.0001 13.124C8.57374 13.124 7.17251 13.4995 5.93728 14.2128C4.70205 14.926 3.67634 15.9518 2.96327 17.1872C2.79071 17.4861 2.40848 17.5886 2.10953 17.416C1.81058 17.2435 1.70812 16.8612 1.88068 16.5623C2.70345 15.1369 3.88696 13.9532 5.31223 13.1303C6.7375 12.3073 8.3543 11.874 10.0001 11.874C11.6459 11.874 13.2627 12.3073 14.688 13.1303C16.1132 13.9532 17.2968 15.1369 18.1195 16.5623C18.2921 16.8612 18.1896 17.2435 17.8907 17.416C17.5917 17.5886 17.2095 17.4861 17.0369 17.1872C16.3239 15.9518 15.2982 14.926 14.0629 14.2128C12.8277 13.4995 11.4265 13.124 10.0001 13.124Z" />
  </symbol>

  <symbol id="youtube" viewBox="0 0 32 32">
    <path d="M13.5281 11.1183C13.8533 10.9443 14.2478 10.9634 14.5547 11.168L20.5547 15.168C20.8329 15.3534 21 15.6656 21 16C21 16.3344 20.8329 16.6466 20.5547 16.8321L14.5547 20.8321C14.2478 21.0366 13.8533 21.0557 13.5281 20.8817C13.203 20.7077 13 20.3688 13 20V12C13 11.6312 13.203 11.2923 13.5281 11.1183ZM15 13.8685V18.1315L18.1972 16L15 13.8685Z" />
    <path fill-rule="evenodd" d="M15.9985 5.04985L15.9816 5.0498L15.9188 5.04983C15.8643 5.04996 15.785 5.05035 15.6831 5.05143C15.4794 5.05359 15.1856 5.0585 14.8206 5.06945C14.0912 5.09135 13.0746 5.13749 11.9237 5.23466C9.64733 5.42685 6.74928 5.82571 4.51808 6.67823L4.50338 6.68398C4.06511 6.85941 3.6742 7.13539 3.36218 7.48966C3.05016 7.84393 2.82577 8.26657 2.70711 8.7235L2.70614 8.72726C2.39473 9.94582 2 12.2055 2 15.9999C2 19.7942 2.39473 22.0539 2.70614 23.2725L2.70711 23.2762C2.82577 23.7332 3.05016 24.1558 3.36218 24.5101C3.6742 24.8643 4.06511 25.1403 4.50338 25.3157L4.51808 25.3215C6.74928 26.174 9.64733 26.5729 11.9237 26.7651C13.0746 26.8622 14.0912 26.9084 14.8206 26.9303C15.1856 26.9412 15.4794 26.9461 15.6831 26.9483C15.785 26.9494 15.8643 26.9498 15.9188 26.9499L15.9816 26.9499L15.9985 26.9499H16.0015L16.0184 26.9499L16.0812 26.9499C16.1357 26.9498 16.215 26.9494 16.3169 26.9483C16.5206 26.9461 16.8144 26.9412 17.1794 26.9303C17.9088 26.9084 18.9254 26.8622 20.0763 26.7651C22.3527 26.5729 25.2507 26.174 27.4819 25.3215L27.4966 25.3157C27.9349 25.1403 28.3258 24.8643 28.6378 24.5101C28.9498 24.1558 29.1742 23.7332 29.2929 23.2762L29.2939 23.2725C29.6053 22.0539 30 19.7942 30 15.9999C30 12.2055 29.6053 9.94582 29.2939 8.72726L29.2929 8.7235C29.1742 8.26657 28.9498 7.84393 28.6378 7.48966C28.3258 7.13539 27.9349 6.85941 27.4966 6.68398L27.4819 6.67823C25.2507 5.82571 22.3527 5.42685 20.0763 5.23466C18.9254 5.13749 17.9088 5.09135 17.1794 5.06945C16.8144 5.0585 16.5206 5.05359 16.3169 5.05143C16.215 5.05035 16.1357 5.04996 16.0812 5.04983L16.0184 5.0498L16.0015 5.04985H15.9985ZM15.9947 24.9499L16.0054 24.9498L16.0086 24.9499L16.0217 24.9499L16.0767 24.9499C16.1259 24.9498 16.1996 24.9494 16.2957 24.9484C16.4877 24.9464 16.7686 24.9417 17.1194 24.9312C17.8216 24.9101 18.8011 24.8656 19.9081 24.7722C22.1441 24.5834 24.8041 24.2018 26.7596 23.4565C26.9044 23.3974 27.0336 23.3056 27.1369 23.1882C27.2414 23.0695 27.3167 22.928 27.3567 22.7751C27.6203 21.7429 28 19.6529 28 15.9999C28 12.3468 27.6203 10.2568 27.3567 9.22464C27.3167 9.07168 27.2414 8.9302 27.1369 8.81154C27.0336 8.69415 26.9044 8.60233 26.7596 8.54326C24.8041 7.79791 22.1441 7.41635 19.9081 7.22757C18.8011 7.13411 17.8216 7.08963 17.1194 7.06855C16.7686 7.05802 16.4877 7.05336 16.2957 7.05132C16.1996 7.0503 16.1259 7.04994 16.0767 7.04983L16.0217 7.0498L16.0086 7.04983L16.0058 7.04985L15.9946 7.04991L15.9914 7.04983L15.9783 7.0498L15.9233 7.04983C15.8741 7.04994 15.8004 7.0503 15.7043 7.05132C15.5123 7.05336 15.2314 7.05802 14.8806 7.06855C14.1784 7.08963 13.1989 7.13411 12.0919 7.22757C9.8559 7.41635 7.1959 7.79791 5.24039 8.54327C5.09561 8.60234 4.96645 8.69415 4.86306 8.81154C4.75855 8.9302 4.6833 9.07168 4.64331 9.22464C4.37974 10.2569 4 12.3468 4 15.9999C4 19.6529 4.37973 21.7429 4.6433 22.7751C4.68329 22.928 4.75855 23.0695 4.86306 23.1882C4.96645 23.3056 5.09561 23.3974 5.24038 23.4565C7.1959 24.2018 9.8559 24.5834 12.0919 24.7722C13.1989 24.8656 14.1784 24.9101 14.8806 24.9312C15.2314 24.9417 15.5123 24.9464 15.7043 24.9484C15.8004 24.9494 15.8741 24.9498 15.9233 24.9499L15.9783 24.9499L15.9914 24.9499L15.9947 24.9499Z" />
  </symbol>

  <symbol id="copy" viewBox="0 0 32 32">
    <path d="M10 5C10 4.44772 10.4477 4 11 4H27C27.5523 4 28 4.44772 28 5V21C28 21.5523 27.5523 22 27 22H21C20.4477 22 20 21.5523 20 21C20 20.4477 20.4477 20 21 20H26V6H12V11C12 11.5523 11.5523 12 11 12C10.4477 12 10 11.5523 10 11V5Z"/>
    <path d="M4 11C4 10.4477 4.44772 10 5 10H21C21.5523 10 22 10.4477 22 11V27C22 27.5523 21.5523 28 21 28H5C4.44772 28 4 27.5523 4 27V11ZM6 12V26H20V12H6Z"/>
  </symbol>

  <symbol id="plus" viewBox="0 0 20 20">
    <path d="M2.5 10C2.5 9.65482 2.77982 9.375 3.125 9.375H16.875C17.2202 9.375 17.5 9.65482 17.5 10C17.5 10.3452 17.2202 10.625 16.875 10.625H3.125C2.77982 10.625 2.5 10.3452 2.5 10Z" />
    <path d="M10 2.5C10.3452 2.5 10.625 2.77982 10.625 3.125V16.875C10.625 17.2202 10.3452 17.5 10 17.5C9.65482 17.5 9.375 17.2202 9.375 16.875V3.125C9.375 2.77982 9.65482 2.5 10 2.5Z" />
  </symbol>

  <symbol id="email" viewBox="0 0 20 20">
    <path d="M1.875 4.375C1.875 4.02982 2.15482 3.75 2.5 3.75H17.5C17.8452 3.75 18.125 4.02982 18.125 4.375V15C18.125 15.3315 17.9933 15.6495 17.7589 15.8839C17.5245 16.1183 17.2065 16.25 16.875 16.25H3.125C2.79348 16.25 2.47554 16.1183 2.24112 15.8839C2.0067 15.6495 1.875 15.3315 1.875 15V4.375ZM3.125 5V15H16.875V5H3.125Z" />
    <path d="M2.03928 3.95268C2.27253 3.69823 2.66788 3.68104 2.92233 3.91428L10 10.4021L17.0777 3.91428C17.3321 3.68104 17.7275 3.69823 17.9607 3.95268C18.194 4.20713 18.1768 4.60248 17.9223 4.83573L10.4223 11.7107C10.1834 11.9298 9.81663 11.9298 9.57768 11.7107L2.07768 4.83573C1.82323 4.60248 1.80604 4.20713 2.03928 3.95268Z" />
  </symbol>

  <symbol id="lock" viewBox="0 0 20 20">
    <path d="M10 10C9.48223 10 9.0625 10.4197 9.0625 10.9375C9.0625 11.4553 9.48223 11.875 10 11.875C10.5178 11.875 10.9375 11.4553 10.9375 10.9375C10.9375 10.4197 10.5178 10 10 10ZM7.8125 10.9375C7.8125 9.72938 8.79188 8.75 10 8.75C11.2081 8.75 12.1875 9.72938 12.1875 10.9375C12.1875 12.1456 11.2081 13.125 10 13.125C8.79188 13.125 7.8125 12.1456 7.8125 10.9375Z" />
    <path d="M10 11.875C10.3452 11.875 10.625 12.1548 10.625 12.5V14.375C10.625 14.7202 10.3452 15 10 15C9.65482 15 9.375 14.7202 9.375 14.375V12.5C9.375 12.1548 9.65482 11.875 10 11.875Z" />
    <path d="M2.5 7.5C2.5 6.80964 3.05964 6.25 3.75 6.25H16.25C16.9404 6.25 17.5 6.80964 17.5 7.5V16.25C17.5 16.9404 16.9404 17.5 16.25 17.5H3.75C3.05964 17.5 2.5 16.9404 2.5 16.25V7.5ZM16.25 7.5H3.75V16.25H16.25V7.5Z" />
    <path d="M10 1.875C9.41984 1.875 8.86344 2.10547 8.4532 2.5157C8.04297 2.92594 7.8125 3.48234 7.8125 4.0625V6.875C7.8125 7.22018 7.53268 7.5 7.1875 7.5C6.84232 7.5 6.5625 7.22018 6.5625 6.875V4.0625C6.5625 3.15082 6.92466 2.27648 7.56932 1.63182C8.21398 0.987164 9.08832 0.625 10 0.625C10.9117 0.625 11.786 0.987164 12.4307 1.63182C13.0753 2.27648 13.4375 3.15082 13.4375 4.0625V6.875C13.4375 7.22018 13.1577 7.5 12.8125 7.5C12.4673 7.5 12.1875 7.22018 12.1875 6.875V4.0625C12.1875 3.48234 11.957 2.92594 11.5468 2.5157C11.1366 2.10547 10.5802 1.875 10 1.875Z" />
  </symbol>

  <symbol id="globe" viewBox="0 0 32 32">
    <path d="M16 5C9.92487 5 5 9.92487 5 16C5 22.0751 9.92487 27 16 27C22.0751 27 27 22.0751 27 16C27 9.92487 22.0751 5 16 5ZM3 16C3 8.8203 8.8203 3 16 3C23.1797 3 29 8.8203 29 16C29 23.1797 23.1797 29 16 29C8.8203 29 3 23.1797 3 16Z" />
    <path d="M3.6875 12C3.6875 11.4477 4.13522 11 4.6875 11H27.3125C27.8648 11 28.3125 11.4477 28.3125 12C28.3125 12.5523 27.8648 13 27.3125 13H4.6875C4.13522 13 3.6875 12.5523 3.6875 12Z" />
    <path d="M3.6875 20C3.6875 19.4477 4.13522 19 4.6875 19H27.3125C27.8648 19 28.3125 19.4477 28.3125 20C28.3125 20.5523 27.8648 21 27.3125 21H4.6875C4.13522 21 3.6875 20.5523 3.6875 20Z" />
    <path d="M13.3837 8.13841C12.5439 10.0995 12 12.8783 12 16.0002C12 19.1221 12.5439 21.9009 13.3837 23.862C13.8044 24.8443 14.2797 25.5753 14.7565 26.0462C15.229 26.5129 15.6481 26.6752 16 26.6752C16.3519 26.6752 16.771 26.5129 17.2435 26.0462C17.7203 25.5753 18.1956 24.8443 18.6163 23.862C19.4561 21.9009 20 19.1221 20 16.0002C20 12.8783 19.4561 10.0995 18.6163 8.13841C18.1956 7.15609 17.7203 6.42507 17.2435 5.95417C16.771 5.4875 16.3519 5.3252 16 5.3252C15.6481 5.3252 15.229 5.4875 14.7565 5.95417C14.2797 6.42507 13.8044 7.15609 13.3837 8.13841ZM13.3511 4.53118C14.075 3.81627 14.9712 3.3252 16 3.3252C17.0288 3.3252 17.9251 3.81627 18.6489 4.53118C19.3685 5.24186 19.9707 6.2206 20.4548 7.35104C21.4246 9.61551 22 12.6741 22 16.0002C22 19.3263 21.4246 22.3849 20.4548 24.6493C19.9707 25.7798 19.3685 26.7585 18.6489 27.4692C17.925 28.1841 17.0288 28.6752 16 28.6752C14.9712 28.6752 14.075 28.1841 13.3511 27.4692C12.6315 26.7585 12.0293 25.7798 11.5452 24.6493C10.5754 22.3849 10 19.3263 10 16.0002C10 12.6741 10.5754 9.61551 11.5452 7.35104C12.0293 6.2206 12.6315 5.24186 13.3511 4.53118Z" />
  </symbol>

  <symbol id="zoom" viewBox="0 0 24 24">
    <path d="M10.875 3.75C6.93997 3.75 3.75 6.93997 3.75 10.875C3.75 14.81 6.93997 18 10.875 18C14.81 18 18 14.81 18 10.875C18 6.93997 14.81 3.75 10.875 3.75ZM2.25 10.875C2.25 6.11154 6.11154 2.25 10.875 2.25C15.6385 2.25 19.5 6.11154 19.5 10.875C19.5 15.6385 15.6385 19.5 10.875 19.5C6.11154 19.5 2.25 15.6385 2.25 10.875Z" />
    <path d="M15.913 15.913C16.2059 15.6201 16.6808 15.6201 16.9737 15.913L21.5299 20.4693C21.8228 20.7622 21.8228 21.237 21.5299 21.5299C21.237 21.8228 20.7622 21.8228 20.4693 21.5299L15.913 16.9737C15.6201 16.6808 15.6201 16.2059 15.913 15.913Z" />
  </symbol>

  <symbol id="metamask" viewBox="0 0 40 40">
    <g clip-path="url(#clip0_3352_5603)">
      <path d="M38.0082 1.5625L22.4004 13.1547L25.2867 6.31544L38.0082 1.5625Z" fill="#E2761B" stroke="#E2761B" stroke-width="0.3125" stroke-linecap="round" stroke-linejoin="round"/>
      <path d="M1.97656 1.5625L17.4589 13.2645L14.7138 6.31544L1.97656 1.5625Z" fill="#E4761B" stroke="#E4761B" stroke-width="0.3125" stroke-linecap="round" stroke-linejoin="round"/>
      <path d="M32.3932 28.4336L28.2363 34.8022L37.1304 37.2493L39.6873 28.5748L32.3932 28.4336Z" fill="#E4761B" stroke="#E4761B" stroke-width="0.3125" stroke-linecap="round" stroke-linejoin="round"/>
      <path d="M0.330078 28.5748L2.87125 37.2493L11.7654 34.8022L7.60851 28.4336L0.330078 28.5748Z" fill="#E4761B" stroke="#E4761B" stroke-width="0.3125" stroke-linecap="round" stroke-linejoin="round"/>
      <path d="M11.2636 17.6732L8.78516 21.4223L17.6165 21.8144L17.3028 12.3242L11.2636 17.6732Z" fill="#E4761B" stroke="#E4761B" stroke-width="0.3125" stroke-linecap="round" stroke-linejoin="round"/>
      <path d="M28.722 17.6717L22.6043 12.2129L22.4004 21.8129L31.2161 21.4207L28.722 17.6717Z" fill="#E4761B" stroke="#E4761B" stroke-width="0.3125" stroke-linecap="round" stroke-linejoin="round"/>
      <path d="M11.7656 34.8014L17.0676 32.2132L12.4872 28.6367L11.7656 34.8014Z" fill="#E4761B" stroke="#E4761B" stroke-width="0.3125" stroke-linecap="round" stroke-linejoin="round"/>
      <path d="M22.918 32.2132L28.2356 34.8014L27.4984 28.6367L22.918 32.2132Z" fill="#E4761B" stroke="#E4761B" stroke-width="0.3125" stroke-linecap="round" stroke-linejoin="round"/>
      <path d="M28.2356 34.8011L22.918 32.2129L23.3415 35.6796L23.2944 37.1384L28.2356 34.8011Z" fill="#D7C1B3" stroke="#D7C1B3" stroke-width="0.3125" stroke-linecap="round" stroke-linejoin="round"/>
      <path d="M11.7656 34.8011L16.7068 37.1384L16.6754 35.6796L17.0676 32.2129L11.7656 34.8011Z" fill="#D7C1B3" stroke="#D7C1B3" stroke-width="0.3125" stroke-linecap="round" stroke-linejoin="round"/>
      <path d="M16.7849 26.3466L12.3613 25.0446L15.4829 23.6172L16.7849 26.3466Z" fill="#233447" stroke="#233447" stroke-width="0.3125" stroke-linecap="round" stroke-linejoin="round"/>
      <path d="M23.1992 26.3466L24.5012 23.6172L27.6384 25.0446L23.1992 26.3466Z" fill="#233447" stroke="#233447" stroke-width="0.3125" stroke-linecap="round" stroke-linejoin="round"/>
      <path d="M11.7643 34.8022L12.5172 28.4336L7.60742 28.5748L11.7643 34.8022Z" fill="#CD6116" stroke="#CD6116" stroke-width="0.3125" stroke-linecap="round" stroke-linejoin="round"/>
      <path d="M27.4824 28.4336L28.2354 34.8022L32.3922 28.5748L27.4824 28.4336Z" fill="#CD6116" stroke="#CD6116" stroke-width="0.3125" stroke-linecap="round" stroke-linejoin="round"/>
      <path d="M31.2161 21.4219L22.4004 21.814L23.2161 26.3474L24.518 23.618L27.6553 25.0454L31.2161 21.4219Z" fill="#CD6116" stroke="#CD6116" stroke-width="0.3125" stroke-linecap="round" stroke-linejoin="round"/>
      <path d="M12.3597 25.0454L15.4969 23.618L16.7832 26.3474L17.6146 21.814L8.7832 21.4219L12.3597 25.0454Z" fill="#CD6116" stroke="#CD6116" stroke-width="0.3125" stroke-linecap="round" stroke-linejoin="round"/>
      <path d="M8.78516 21.4219L12.4871 28.6376L12.3616 25.0454L8.78516 21.4219Z" fill="#E4751F" stroke="#E4751F" stroke-width="0.3125" stroke-linecap="round" stroke-linejoin="round"/>
      <path d="M27.6549 25.0454L27.498 28.6376L31.2157 21.4219L27.6549 25.0454Z" fill="#E4751F" stroke="#E4751F" stroke-width="0.3125" stroke-linecap="round" stroke-linejoin="round"/>
      <path d="M17.6165 21.8145L16.7852 26.3478L17.8204 31.6968L18.0557 24.6537L17.6165 21.8145Z" fill="#E4751F" stroke="#E4751F" stroke-width="0.3125" stroke-linecap="round" stroke-linejoin="round"/>
      <path d="M22.4001 21.8145L21.9766 24.638L22.1648 31.6968L23.2158 26.3478L22.4001 21.8145Z" fill="#E4751F" stroke="#E4751F" stroke-width="0.3125" stroke-linecap="round" stroke-linejoin="round"/>
      <path d="M23.215 26.3469L22.1641 31.6959L22.917 32.2135L27.4974 28.6371L27.6543 25.0449L23.215 26.3469Z" fill="#F6851B" stroke="#F6851B" stroke-width="0.3125" stroke-linecap="round" stroke-linejoin="round"/>
      <path d="M12.3613 25.0449L12.4868 28.6371L17.0672 32.2135L17.8202 31.6959L16.7849 26.3469L12.3613 25.0449Z" fill="#F6851B" stroke="#F6851B" stroke-width="0.3125" stroke-linecap="round" stroke-linejoin="round"/>
      <path d="M23.295 37.138L23.3421 35.6792L22.9499 35.3341H17.0362L16.6754 35.6792L16.7068 37.138L11.7656 34.8008L13.4911 36.2125L16.9892 38.6439H22.997L26.5107 36.2125L28.2362 34.8008L23.295 37.138Z" fill="#C0AD9E" stroke="#C0AD9E" stroke-width="0.3125" stroke-linecap="round" stroke-linejoin="round"/>
      <path d="M22.917 32.213L22.164 31.6953H17.8189L17.066 32.213L16.6738 35.6796L17.0346 35.3345H22.9483L23.3405 35.6796L22.917 32.213Z" fill="#161616" stroke="#161616" stroke-width="0.3125" stroke-linecap="round" stroke-linejoin="round"/>
      <path d="M38.667 13.9076L40.0003 7.5076L38.0082 1.5625L22.918 12.7625L28.7219 17.6723L36.9258 20.0723L38.7454 17.9547L37.9611 17.39L39.216 16.2449L38.2435 15.4919L39.4984 14.5351L38.667 13.9076Z" fill="#763D16" stroke="#763D16" stroke-width="0.3125" stroke-linecap="round" stroke-linejoin="round"/>
      <path d="M0 7.5076L1.33333 13.9076L0.486275 14.5351L1.74118 15.4919L0.784314 16.2449L2.03922 17.39L1.2549 17.9547L3.05882 20.0723L11.2627 17.6723L17.0667 12.7625L1.97647 1.5625L0 7.5076Z" fill="#763D16" stroke="#763D16" stroke-width="0.3125" stroke-linecap="round" stroke-linejoin="round"/>
      <path d="M36.9255 20.0719L28.7216 17.6719L31.2157 21.4209L27.498 28.6366L32.3922 28.5738H39.6863L36.9255 20.0719Z" fill="#F6851B" stroke="#F6851B" stroke-width="0.3125" stroke-linecap="round" stroke-linejoin="round"/>
      <path d="M11.2634 17.6719L3.05949 20.0719L0.330078 28.5738H7.60851L12.4869 28.6366L8.78498 21.4209L11.2634 17.6719Z" fill="#F6851B" stroke="#F6851B" stroke-width="0.3125" stroke-linecap="round" stroke-linejoin="round"/>
      <path d="M22.3992 21.8144L22.9168 12.7635L25.3011 6.31641H14.7129L17.0658 12.7635L17.6149 21.8144L17.8031 24.6693L17.8188 31.6968H22.1639L22.1952 24.6693L22.3992 21.8144Z" fill="#F6851B" stroke="#F6851B" stroke-width="0.3125" stroke-linecap="round" stroke-linejoin="round"/>
    </g>
    <defs>
      <clipPath id="clip0_3352_5603">
        <rect width="40" height="40" fill="white"/>
      </clipPath>
    </defs>
  </symbol>

  <symbol id="coinbase" viewBox="0 0 40 40">
    <g clip-path="url(#clip0_3352_5647)">
      <path d="M20 40C31.0457 40 40 31.0457 40 20C40 8.9543 31.0457 0 20 0C8.9543 0 0 8.9543 0 20C0 31.0457 8.9543 40 20 40Z" fill="#0052FF"/>
      <path fill-rule="evenodd" d="M5.9375 20C5.9375 27.7665 12.2335 34.0625 20 34.0625C27.7665 34.0625 34.0625 27.7665 34.0625 20C34.0625 12.2335 27.7665 5.9375 20 5.9375C12.2335 5.9375 5.9375 12.2335 5.9375 20ZM16.4062 15.4688C15.8885 15.4688 15.4688 15.8885 15.4688 16.4062V23.5938C15.4688 24.1115 15.8885 24.5312 16.4062 24.5312H23.5938C24.1115 24.5312 24.5312 24.1115 24.5312 23.5938V16.4062C24.5312 15.8885 24.1115 15.4688 23.5938 15.4688H16.4062Z" fill="white"/>
    </g>
    <defs>
      <clipPath id="clip0_3352_5647">
        <rect width="40" height="40" fill="white"/>
      </clipPath>
    </defs>
  </symbol>

  <symbol id="password" viewBox="0 0 20 20">
    <path d="M10 10C9.48223 10 9.0625 10.4197 9.0625 10.9375C9.0625 11.4553 9.48223 11.875 10 11.875C10.5178 11.875 10.9375 11.4553 10.9375 10.9375C10.9375 10.4197 10.5178 10 10 10ZM7.8125 10.9375C7.8125 9.72938 8.79188 8.75 10 8.75C11.2081 8.75 12.1875 9.72938 12.1875 10.9375C12.1875 12.1456 11.2081 13.125 10 13.125C8.79188 13.125 7.8125 12.1456 7.8125 10.9375Z" />
    <path d="M10 11.875C10.3452 11.875 10.625 12.1548 10.625 12.5V14.375C10.625 14.7202 10.3452 15 10 15C9.65482 15 9.375 14.7202 9.375 14.375V12.5C9.375 12.1548 9.65482 11.875 10 11.875Z"/>
    <path d="M2.5 7.5C2.5 6.80964 3.05964 6.25 3.75 6.25H16.25C16.9404 6.25 17.5 6.80964 17.5 7.5V16.25C17.5 16.9404 16.9404 17.5 16.25 17.5H3.75C3.05964 17.5 2.5 16.9404 2.5 16.25V7.5ZM16.25 7.5H3.75V16.25H16.25V7.5Z"/>
    <path d="M10 1.875C9.41984 1.875 8.86344 2.10547 8.4532 2.5157C8.04297 2.92594 7.8125 3.48234 7.8125 4.0625V6.875C7.8125 7.22018 7.53268 7.5 7.1875 7.5C6.84232 7.5 6.5625 7.22018 6.5625 6.875V4.0625C6.5625 3.15082 6.92466 2.27648 7.56932 1.63182C8.21398 0.987164 9.08832 0.625 10 0.625C10.9117 0.625 11.786 0.987164 12.4307 1.63182C13.0753 2.27648 13.4375 3.15082 13.4375 4.0625V6.875C13.4375 7.22018 13.1577 7.5 12.8125 7.5C12.4673 7.5 12.1875 7.22018 12.1875 6.875V4.0625C12.1875 3.48234 11.957 2.92594 11.5468 2.5157C11.1366 2.10547 10.5802 1.875 10 1.875Z" />
  </symbol>

  <symbol id="walletConnect" viewBox="0 0 40 40">
    <g clip-path="url(#clip0_3256_5611)">
      <path d="M20 40C31.0457 40 40 31.0457 40 20C40 8.9543 31.0457 0 20 0C8.9543 0 0 8.9543 0 20C0 31.0457 8.9543 40 20 40Z" fill="url(#paint0_radial_3256_5611)"/>
      <path d="M12.5586 15.4473C16.582 11.5176 23.1133 11.5176 27.1367 15.4473L27.6211 15.9238C27.8242 16.1191 27.8242 16.4395 27.6211 16.6348L25.9648 18.252C25.8633 18.3535 25.6992 18.3535 25.5977 18.252L24.9336 17.6035C22.1211 14.8613 17.5742 14.8613 14.7617 17.6035L14.0508 18.2988C13.9492 18.4004 13.7852 18.4004 13.6836 18.2988L12.0273 16.6816C11.8242 16.4863 11.8242 16.166 12.0273 15.9707L12.5586 15.4473ZM30.5664 18.791L32.043 20.2285C32.2461 20.4238 32.2461 20.7441 32.043 20.9395L25.3945 27.4316C25.1914 27.627 24.8633 27.627 24.668 27.4316L19.9492 22.8223C19.9023 22.7754 19.8164 22.7754 19.7695 22.8223L15.0508 27.4316C14.8477 27.627 14.5195 27.627 14.3242 27.4316L7.65234 20.9395C7.44922 20.7441 7.44922 20.4238 7.65234 20.2285L9.12891 18.791C9.33203 18.5957 9.66016 18.5957 9.85547 18.791L14.5742 23.4004C14.6211 23.4473 14.707 23.4473 14.7539 23.4004L19.4727 18.791C19.6758 18.5957 20.0039 18.5957 20.1992 18.791L24.918 23.4004C24.9648 23.4473 25.0508 23.4473 25.0977 23.4004L29.8164 18.791C30.0352 18.5957 30.3633 18.5957 30.5664 18.791Z" fill="white"/>
    </g>
    <defs>
      <radialGradient id="paint0_radial_3256_5611" cx="0" cy="0" r="1" gradientUnits="userSpaceOnUse" gradientTransform="translate(0.000123978 20.0006) scale(40)">
        <stop stop-color="#5D9DF6"/>
        <stop offset="1" stop-color="#006FFF"/>
      </radialGradient>
      <clipPath id="clip0_3256_5611">
        <rect width="40" height="40" fill="white"/>
      </clipPath>
    </defs>
  </symbol>

  <symbol id="arrowToTheRight" viewBox="0 0 20 20">
    <path d="M2.5 10C2.5 9.65482 2.77982 9.375 3.125 9.375H16.875C17.2202 9.375 17.5 9.65482 17.5 10C17.5 10.3452 17.2202 10.625 16.875 10.625H3.125C2.77982 10.625 2.5 10.3452 2.5 10Z" />
    <path d="M10.8081 3.93306C11.0521 3.68898 11.4479 3.68898 11.6919 3.93306L17.3169 9.55806C17.561 9.80214 17.561 10.1979 17.3169 10.4419L11.6919 16.0669C11.4479 16.311 11.0521 16.311 10.8081 16.0669C10.564 15.8229 10.564 15.4271 10.8081 15.1831L15.9911 10L10.8081 4.81694C10.564 4.57286 10.564 4.17714 10.8081 3.93306Z" />
  </symbol>
</svg>
