<svg xmlns="http://www.w3.org/2000/svg" fill="none">
  <symbol id="close" viewBox="0 0 20 20">
    <path d="M11.6471 9.99952L19.8966 1.75001L18.2467 0.100098L9.99722 8.34961L1.74821 0.100599L0.0982933 1.75052L8.3473 9.99952L0.0976562 18.2492L1.74757 19.8991L9.99722 11.6494L18.2474 19.8996L19.8973 18.2497L11.6471 9.99952Z" />
  </symbol>

  <symbol id="discord" viewBox="0 0 32 32">
    <path d="M12 19.5C12.8284 19.5 13.5 18.8284 13.5 18C13.5 17.1716 12.8284 16.5 12 16.5C11.1716 16.5 10.5 17.1716 10.5 18C10.5 18.8284 11.1716 19.5 12 19.5Z"/>
    <path d="M20 19.5C20.8284 19.5 21.5 18.8284 21.5 18C21.5 17.1716 20.8284 16.5 20 16.5C19.1716 16.5 18.5 17.1716 18.5 18C18.5 18.8284 19.1716 19.5 20 19.5Z"/>
    <path fill-rule="evenodd" d="M15.9927 9.99959C13.8249 9.98356 11.6678 10.3055 9.59914 10.9539C9.07213 11.119 8.51101 10.8257 8.34584 10.2987C8.18067 9.77168 8.474 9.21056 9.00101 9.04539C11.2656 8.33563 13.6269 7.98281 16.0001 7.99959C18.3732 7.98281 20.7345 8.33563 22.9991 9.04539C23.5261 9.21056 23.8195 9.77168 23.6543 10.2987C23.4891 10.8257 22.928 11.119 22.401 10.9539C20.3323 10.3055 18.1753 9.98356 16.0075 9.99959H15.9927Z"/>
    <path fill-rule="evenodd" d="M8.34584 21.7012C8.51101 21.1742 9.07213 20.8809 9.59914 21.046C11.6678 21.6944 13.8249 22.0163 15.9927 22.0003H16.0075C18.1753 22.0163 20.3323 21.6944 22.401 21.046C22.928 20.8809 23.4891 21.1742 23.6543 21.7012C23.8195 22.2282 23.5261 22.7893 22.9991 22.9545C20.7345 23.6643 18.3732 24.0171 16.0001 24.0003C13.6269 24.0171 11.2656 23.6643 9.00101 22.9545C8.474 22.7893 8.18067 22.2282 8.34584 21.7012Z"/>
    <path fill-rule="evenodd" d="M20.2199 4.81121C20.6504 4.56852 21.1551 4.49267 21.6378 4.59812C22.9554 4.88366 24.2453 5.28424 25.4928 5.79524C25.7736 5.90352 26.0259 6.07496 26.2299 6.29638C26.4362 6.52018 26.5875 6.78885 26.672 7.08115L30.9079 21.2255C31.0183 21.594 31.0209 21.9865 30.9152 22.3563C30.8095 22.7262 30.6 23.0581 30.3116 23.3126L30.3064 23.3171C28.2389 25.1161 25.4376 26.4777 22.2556 27.2577C21.8136 27.3703 21.3462 27.3265 20.9327 27.1336C20.521 26.9414 20.1882 26.6132 19.9903 26.2044L18.482 23.2129C18.2334 22.7197 18.4316 22.1184 18.9248 21.8698C19.4179 21.6211 20.0193 21.8194 20.2679 22.3125L21.7804 25.3125L21.7815 25.3147C24.7194 24.5943 27.2136 23.3571 28.9936 21.8083L29.65 22.5627L28.9884 21.8128C28.9902 21.8113 28.9915 21.8092 28.9921 21.8069C28.9928 21.8046 28.9928 21.8022 28.9921 21.7999L24.756 7.65465C24.7525 7.65325 24.7489 7.65182 24.7454 7.65037C23.6025 7.18149 22.4206 6.81412 21.2132 6.55253L21.211 6.55205C21.208 6.55139 21.2049 6.55186 21.2022 6.55337C21.1998 6.55473 21.1979 6.55684 21.1969 6.55937L20.212 9.53905C20.0386 10.0634 19.473 10.348 18.9486 10.1747C18.4243 10.0013 18.1397 9.43574 18.313 8.91136L19.3034 5.91516C19.4629 5.44707 19.7892 5.0541 20.2199 4.81121Z"/>
    <path fill-rule="evenodd" d="M10.7977 6.55337C10.795 6.55186 10.7919 6.55139 10.7889 6.55205L10.7867 6.55252C9.57939 6.81412 8.39743 7.18148 7.25453 7.65037C7.251 7.65182 7.24746 7.65324 7.24392 7.65465L3.00794 21.7996C3.00725 21.8019 3.00715 21.8046 3.00781 21.8069C3.0084 21.809 3.00951 21.8108 3.01103 21.8123C4.79072 23.3593 7.28311 24.5949 10.2185 25.3147L10.2195 25.3125L11.732 22.3125C11.9807 21.8194 12.582 21.6211 13.0752 21.8698C13.5683 22.1184 13.7665 22.7197 13.5179 23.2129L12.0097 26.2045C11.8118 26.6132 11.479 26.9414 11.0672 27.1336C10.6537 27.3265 10.1863 27.3703 9.74432 27.2577C6.56239 26.4777 3.76102 25.1161 1.69355 23.3171L1.68837 23.3126C1.3999 23.0581 1.19044 22.7262 1.08476 22.3563C0.979102 21.9865 0.981619 21.5942 1.092 21.2258C1.09198 21.2259 1.09203 21.2257 1.092 21.2258L5.3279 7.08117C5.41243 6.78887 5.56377 6.52019 5.77003 6.29638C5.97408 6.07496 6.2263 5.90352 6.50711 5.79524C7.75497 5.28409 9.04529 4.88344 10.3632 4.59788C10.8456 4.49279 11.3499 4.5687 11.78 4.81121C12.2108 5.05409 12.537 5.44708 12.6965 5.91518L12.6995 5.92385L13.6869 8.91136C13.8603 9.43574 13.5757 10.0013 13.0513 10.1747C12.5269 10.348 11.9613 10.0634 11.788 9.53905L10.8031 6.55937C10.802 6.55684 10.8001 6.55473 10.7977 6.55337Z"/>
    <path d="M12 19.5C12.8284 19.5 13.5 18.8284 13.5 18C13.5 17.1716 12.8284 16.5 12 16.5C11.1716 16.5 10.5 17.1716 10.5 18C10.5 18.8284 11.1716 19.5 12 19.5Z"/>
    <path d="M20 19.5C20.8284 19.5 21.5 18.8284 21.5 18C21.5 17.1716 20.8284 16.5 20 16.5C19.1716 16.5 18.5 17.1716 18.5 18C18.5 18.8284 19.1716 19.5 20 19.5Z"/>
    <path fill-rule="evenodd" d="M15.9927 9.99959C13.8249 9.98356 11.6678 10.3055 9.59914 10.9539C9.07213 11.119 8.51101 10.8257 8.34584 10.2987C8.18067 9.77168 8.474 9.21056 9.00101 9.04539C11.2656 8.33563 13.6269 7.98281 16.0001 7.99959C18.3732 7.98281 20.7345 8.33563 22.9991 9.04539C23.5261 9.21056 23.8195 9.77168 23.6543 10.2987C23.4891 10.8257 22.928 11.119 22.401 10.9539C20.3323 10.3055 18.1753 9.98356 16.0075 9.99959H15.9927Z"/>
    <path fill-rule="evenodd" d="M8.34584 21.7012C8.51101 21.1742 9.07213 20.8809 9.59914 21.046C11.6678 21.6944 13.8249 22.0163 15.9927 22.0003H16.0075C18.1753 22.0163 20.3323 21.6944 22.401 21.046C22.928 20.8809 23.4891 21.1742 23.6543 21.7012C23.8195 22.2282 23.5261 22.7893 22.9991 22.9545C20.7345 23.6643 18.3732 24.0171 16.0001 24.0003C13.6269 24.0171 11.2656 23.6643 9.00101 22.9545C8.474 22.7893 8.18067 22.2282 8.34584 21.7012Z"/>
    <path fill-rule="evenodd" d="M20.2199 4.81121C20.6504 4.56852 21.1551 4.49267 21.6378 4.59812C22.9554 4.88366 24.2453 5.28424 25.4928 5.79524C25.7736 5.90352 26.0259 6.07496 26.2299 6.29638C26.4362 6.52018 26.5875 6.78885 26.672 7.08115L30.9079 21.2255C31.0183 21.594 31.0209 21.9865 30.9152 22.3563C30.8095 22.7262 30.6 23.0581 30.3116 23.3126L30.3064 23.3171C28.2389 25.1161 25.4376 26.4777 22.2556 27.2577C21.8136 27.3703 21.3462 27.3265 20.9327 27.1336C20.521 26.9414 20.1882 26.6132 19.9903 26.2044L18.482 23.2129C18.2334 22.7197 18.4316 22.1184 18.9248 21.8698C19.4179 21.6211 20.0193 21.8194 20.2679 22.3125L21.7804 25.3125L21.7815 25.3147C24.7194 24.5943 27.2136 23.3571 28.9936 21.8083L29.65 22.5627L28.9884 21.8128C28.9902 21.8113 28.9915 21.8092 28.9921 21.8069C28.9928 21.8046 28.9928 21.8022 28.9921 21.7999L24.756 7.65465C24.7525 7.65325 24.7489 7.65182 24.7454 7.65037C23.6025 7.18149 22.4206 6.81412 21.2132 6.55253L21.211 6.55205C21.208 6.55139 21.2049 6.55186 21.2022 6.55337C21.1998 6.55473 21.1979 6.55684 21.1969 6.55937L20.212 9.53905C20.0386 10.0634 19.473 10.348 18.9486 10.1747C18.4243 10.0013 18.1397 9.43574 18.313 8.91136L19.3034 5.91516C19.4629 5.44707 19.7892 5.0541 20.2199 4.81121Z"/>
    <path fill-rule="evenodd" d="M10.7977 6.55337C10.795 6.55186 10.7919 6.55139 10.7889 6.55205L10.7867 6.55252C9.57939 6.81412 8.39743 7.18148 7.25453 7.65037C7.251 7.65182 7.24746 7.65324 7.24392 7.65465L3.00794 21.7996C3.00725 21.8019 3.00715 21.8046 3.00781 21.8069C3.0084 21.809 3.00951 21.8108 3.01103 21.8123C4.79072 23.3593 7.28311 24.5949 10.2185 25.3147L10.2195 25.3125L11.732 22.3125C11.9807 21.8194 12.582 21.6211 13.0752 21.8698C13.5683 22.1184 13.7665 22.7197 13.5179 23.2129L12.0097 26.2045C11.8118 26.6132 11.479 26.9414 11.0672 27.1336C10.6537 27.3265 10.1863 27.3703 9.74432 27.2577C6.56239 26.4777 3.76102 25.1161 1.69355 23.3171L1.68837 23.3126C1.3999 23.0581 1.19044 22.7262 1.08476 22.3563C0.979102 21.9865 0.981619 21.5942 1.092 21.2258C1.09198 21.2259 1.09203 21.2257 1.092 21.2258L5.3279 7.08117C5.41243 6.78887 5.56377 6.52019 5.77003 6.29638C5.97408 6.07496 6.2263 5.90352 6.50711 5.79524C7.75497 5.28409 9.04529 4.88344 10.3632 4.59788C10.8456 4.49279 11.3499 4.5687 11.78 4.81121C12.2108 5.05409 12.537 5.44708 12.6965 5.91518L12.6995 5.92385L13.6869 8.91136C13.8603 9.43574 13.5757 10.0013 13.0513 10.1747C12.5269 10.348 11.9613 10.0634 11.788 9.53905L10.8031 6.55937C10.802 6.55684 10.8001 6.55473 10.7977 6.55337Z"/>
  </symbol>

  <symbol id="instagram" viewBox="0 0 32 32">
    <path fill-rule="evenodd" d="M16 12C13.7909 12 12 13.7909 12 16C12 18.2091 13.7909 20 16 20C18.2091 20 20 18.2091 20 16C20 13.7909 18.2091 12 16 12ZM10 16C10 12.6863 12.6863 10 16 10C19.3137 10 22 12.6863 22 16C22 19.3137 19.3137 22 16 22C12.6863 22 10 19.3137 10 16Z"/>
    <path fill-rule="evenodd" d="M10.5 5.5C7.73858 5.5 5.5 7.73858 5.5 10.5V21.5C5.5 24.2614 7.73858 26.5 10.5 26.5H21.5C24.2614 26.5 26.5 24.2614 26.5 21.5V10.5C26.5 7.73858 24.2614 5.5 21.5 5.5H10.5ZM3.5 10.5C3.5 6.63401 6.63401 3.5 10.5 3.5H21.5C25.366 3.5 28.5 6.63401 28.5 10.5V21.5C28.5 25.366 25.366 28.5 21.5 28.5H10.5C6.63401 28.5 3.5 25.366 3.5 21.5V10.5Z"/>
    <path d="M22.5 11C23.3284 11 24 10.3284 24 9.5C24 8.67157 23.3284 8 22.5 8C21.6716 8 21 8.67157 21 9.5C21 10.3284 21.6716 11 22.5 11Z"/>
  </symbol>

  <symbol id="logo" viewBox="0 0 32 32">
    <path d="M6 12.4502C6.55228 12.4502 7 12.8979 7 13.4502V26.0002H25V13.4502C25 12.8979 25.4477 12.4502 26 12.4502C26.5523 12.4502 27 12.8979 27 13.4502V26.0002C27 26.5306 26.7893 27.0393 26.4142 27.4144C26.0391 27.7895 25.5304 28.0002 25 28.0002H7C6.46957 28.0002 5.96086 27.7895 5.58579 27.4144C5.21071 27.0393 5 26.5306 5 26.0002V13.4502C5 12.8979 5.44772 12.4502 6 12.4502Z" />
    <path d="M3 5C3 4.44772 3.44772 4 4 4H28C28.5523 4 29 4.44772 29 5C29 5.55228 28.5523 6 28 6H4C3.44772 6 3 5.55228 3 5Z" />
    <path d="M4 7C4.55228 7 5 7.44772 5 8V10C5 10.7956 5.31607 11.5587 5.87868 12.1213C6.44129 12.6839 7.20435 13 8 13C8.79565 13 9.55871 12.6839 10.1213 12.1213C10.6839 11.5587 11 10.7956 11 10V8C11 7.44772 11.4477 7 12 7C12.5523 7 13 7.44772 13 8V10C13 11.3261 12.4732 12.5979 11.5355 13.5355C10.5979 14.4732 9.32608 15 8 15C6.67392 15 5.40215 14.4732 4.46447 13.5355C3.52678 12.5979 3 11.3261 3 10V8C3 7.44772 3.44772 7 4 7Z" />
    <path d="M12 7C12.5523 7 13 7.44772 13 8V10C13 10.7956 13.3161 11.5587 13.8787 12.1213C14.4413 12.6839 15.2044 13 16 13C16.7956 13 17.5587 12.6839 18.1213 12.1213C18.6839 11.5587 19 10.7956 19 10V8C19 7.44772 19.4477 7 20 7C20.5523 7 21 7.44772 21 8V10C21 11.3261 20.4732 12.5979 19.5355 13.5355C18.5979 14.4732 17.3261 15 16 15C14.6739 15 13.4021 14.4732 12.4645 13.5355C11.5268 12.5979 11 11.3261 11 10V8C11 7.44772 11.4477 7 12 7Z" />
    <path d="M20 7C20.5523 7 21 7.44772 21 8V10C21 10.7956 21.3161 11.5587 21.8787 12.1213C22.4413 12.6839 23.2044 13 24 13C24.7956 13 25.5587 12.6839 26.1213 12.1213C26.6839 11.5587 27 10.7956 27 10V8C27 7.44772 27.4477 7 28 7C28.5523 7 29 7.44772 29 8V10C29 11.3261 28.4732 12.5979 27.5355 13.5355C26.5979 14.4732 25.3261 15 24 15C22.6739 15 21.4021 14.4732 20.4645 13.5355C19.5268 12.5979 19 11.3261 19 10V8C19 7.44772 19.4477 7 20 7Z" />
  </symbol>

  <symbol id="user" viewBox="0 0 20 20">
    <path d="M10 3.125C7.58375 3.125 5.625 5.08375 5.625 7.5C5.625 9.91625 7.58375 11.875 10 11.875C12.4162 11.875 14.375 9.91625 14.375 7.5C14.375 5.08375 12.4162 3.125 10 3.125ZM4.375 7.5C4.375 4.3934 6.8934 1.875 10 1.875C13.1066 1.875 15.625 4.3934 15.625 7.5C15.625 10.6066 13.1066 13.125 10 13.125C6.8934 13.125 4.375 10.6066 4.375 7.5Z" />
    <path d="M10.0001 13.124C8.57374 13.124 7.17251 13.4995 5.93728 14.2128C4.70205 14.926 3.67634 15.9518 2.96327 17.1872C2.79071 17.4861 2.40848 17.5886 2.10953 17.416C1.81058 17.2435 1.70812 16.8612 1.88068 16.5623C2.70345 15.1369 3.88696 13.9532 5.31223 13.1303C6.7375 12.3073 8.3543 11.874 10.0001 11.874C11.6459 11.874 13.2627 12.3073 14.688 13.1303C16.1132 13.9532 17.2968 15.1369 18.1195 16.5623C18.2921 16.8612 18.1896 17.2435 17.8907 17.416C17.5917 17.5886 17.2095 17.4861 17.0369 17.1872C16.3239 15.9518 15.2982 14.926 14.0629 14.2128C12.8277 13.4995 11.4265 13.124 10.0001 13.124Z" />
  </symbol>

  <symbol id="youtube" viewBox="0 0 32 32">
    <path fill-rule="evenodd" d="M13.5281 11.1183C13.8533 10.9443 14.2478 10.9634 14.5547 11.168L20.5547 15.168C20.8329 15.3534 21 15.6656 21 16C21 16.3344 20.8329 16.6466 20.5547 16.8321L14.5547 20.8321C14.2478 21.0366 13.8533 21.0557 13.5281 20.8817C13.203 20.7077 13 20.3688 13 20V12C13 11.6312 13.203 11.2923 13.5281 11.1183ZM15 13.8685V18.1315L18.1972 16L15 13.8685Z" />
    <path fill-rule="evenodd" d="M15.9985 5.04985L15.9816 5.0498L15.9188 5.04983C15.8643 5.04996 15.785 5.05035 15.6831 5.05143C15.4794 5.05359 15.1856 5.0585 14.8206 5.06945C14.0912 5.09135 13.0746 5.13749 11.9237 5.23466C9.64733 5.42685 6.74928 5.82571 4.51808 6.67823L4.50338 6.68398C4.06511 6.85941 3.6742 7.13539 3.36218 7.48966C3.05016 7.84393 2.82577 8.26657 2.70711 8.7235L2.70614 8.72726C2.39473 9.94582 2 12.2055 2 15.9999C2 19.7942 2.39473 22.0539 2.70614 23.2725L2.70711 23.2762C2.82577 23.7332 3.05016 24.1558 3.36218 24.5101C3.6742 24.8643 4.06511 25.1403 4.50338 25.3157L4.51808 25.3215C6.74928 26.174 9.64733 26.5729 11.9237 26.7651C13.0746 26.8622 14.0912 26.9084 14.8206 26.9303C15.1856 26.9412 15.4794 26.9461 15.6831 26.9483C15.785 26.9494 15.8643 26.9498 15.9188 26.9499L15.9816 26.9499L15.9985 26.9499H16.0015L16.0184 26.9499L16.0812 26.9499C16.1357 26.9498 16.215 26.9494 16.3169 26.9483C16.5206 26.9461 16.8144 26.9412 17.1794 26.9303C17.9088 26.9084 18.9254 26.8622 20.0763 26.7651C22.3527 26.5729 25.2507 26.174 27.4819 25.3215L27.4966 25.3157C27.9349 25.1403 28.3258 24.8643 28.6378 24.5101C28.9498 24.1558 29.1742 23.7332 29.2929 23.2762L29.2939 23.2725C29.6053 22.0539 30 19.7942 30 15.9999C30 12.2055 29.6053 9.94582 29.2939 8.72726L29.2929 8.7235C29.1742 8.26657 28.9498 7.84393 28.6378 7.48966C28.3258 7.13539 27.9349 6.85941 27.4966 6.68398L27.4819 6.67823C25.2507 5.82571 22.3527 5.42685 20.0763 5.23466C18.9254 5.13749 17.9088 5.09135 17.1794 5.06945C16.8144 5.0585 16.5206 5.05359 16.3169 5.05143C16.215 5.05035 16.1357 5.04996 16.0812 5.04983L16.0184 5.0498L16.0015 5.04985H15.9985ZM15.9947 24.9499L16.0054 24.9498L16.0086 24.9499L16.0217 24.9499L16.0767 24.9499C16.1259 24.9498 16.1996 24.9494 16.2957 24.9484C16.4877 24.9464 16.7686 24.9417 17.1194 24.9312C17.8216 24.9101 18.8011 24.8656 19.9081 24.7722C22.1441 24.5834 24.8041 24.2018 26.7596 23.4565C26.9044 23.3974 27.0336 23.3056 27.1369 23.1882C27.2414 23.0695 27.3167 22.928 27.3567 22.7751C27.6203 21.7429 28 19.6529 28 15.9999C28 12.3468 27.6203 10.2568 27.3567 9.22464C27.3167 9.07168 27.2414 8.9302 27.1369 8.81154C27.0336 8.69415 26.9044 8.60233 26.7596 8.54326C24.8041 7.79791 22.1441 7.41635 19.9081 7.22757C18.8011 7.13411 17.8216 7.08963 17.1194 7.06855C16.7686 7.05802 16.4877 7.05336 16.2957 7.05132C16.1996 7.0503 16.1259 7.04994 16.0767 7.04983L16.0217 7.0498L16.0086 7.04983L16.0058 7.04985L15.9946 7.04991L15.9914 7.04983L15.9783 7.0498L15.9233 7.04983C15.8741 7.04994 15.8004 7.0503 15.7043 7.05132C15.5123 7.05336 15.2314 7.05802 14.8806 7.06855C14.1784 7.08963 13.1989 7.13411 12.0919 7.22757C9.8559 7.41635 7.1959 7.79791 5.24039 8.54327C5.09561 8.60234 4.96645 8.69415 4.86306 8.81154C4.75855 8.9302 4.6833 9.07168 4.64331 9.22464C4.37974 10.2569 4 12.3468 4 15.9999C4 19.6529 4.37973 21.7429 4.6433 22.7751C4.68329 22.928 4.75855 23.0695 4.86306 23.1882C4.96645 23.3056 5.09561 23.3974 5.24038 23.4565C7.1959 24.2018 9.8559 24.5834 12.0919 24.7722C13.1989 24.8656 14.1784 24.9101 14.8806 24.9312C15.2314 24.9417 15.5123 24.9464 15.7043 24.9484C15.8004 24.9494 15.8741 24.9498 15.9233 24.9499L15.9783 24.9499L15.9914 24.9499L15.9947 24.9499Z" />
  </symbol>
</svg>
